<?xml version="1.0" encoding="UTF-8"?><svg xmlns="http://www.w3.org/2000/svg" viewBox="0 0 100 100"><path d="M83.5,8.25H16.5c-4.56,0-8.25,3.69-8.25,8.25V83.5c0,4.56,3.69,8.25,8.25,8.25H83.5c4.56,0,8.25-3.69,8.25-8.25V16.5c0-4.56-3.69-8.25-8.25-8.25Z"/><g id="uuid-929ec93f-257f-4501-85ad-fae353842b3e"><path d="M8.25,0V83.5c0,4.56,3.69,8.25,8.25,8.25H83.5c4.56,0,8.25-3.69,8.25-8.25V0H8.25Z"/></g><g id="uuid-1ba9cfc5-2053-4b07-b09c-06e29e7df57f"><path d="M83.5,8.25H16.5c-4.56,0-8.25,3.69-8.25,8.25V83.5c0,4.56,3.69,8.25,8.25,8.25H100V8.25h-16.5Z"/></g><g id="uuid-dd527c17-a67a-4f98-a54b-e7122a523f9e"><path d="M83.5,8.25H16.5c-4.56,0-8.25,3.69-8.25,8.25V100H91.75V16.5c0-4.56-3.69-8.25-8.25-8.25Z"/></g><g id="uuid-b61578d6-a15e-4f4d-aa3a-8b9e76c3dda3"><path d="M83.5,8.25H0V91.75H83.5c4.56,0,8.25-3.69,8.25-8.25V16.5c0-4.56-3.69-8.25-8.25-8.25Z"/></g><g id="uuid-69ef136d-d421-47bb-99ba-4275ead1cdce"><polygon points="8.25 0 8.25 16.5 8.25 50 8.25 83.5 8.25 100 91.75 100 91.75 83.5 91.75 50 91.75 16.5 91.75 0 8.25 0"/></g><g id="uuid-42910362-82e7-44ba-ab36-6cfc59b67ab6"><polygon points="83.5 8.25 50 8.25 16.5 8.25 0 8.25 0 91.75 16.5 91.75 50 91.75 83.5 91.75 100 91.75 100 8.25 83.5 8.25"/></g><g id="uuid-ff2b5b98-49e5-4ab9-b0d1-ad87f2d98d1f"><path d="M91.75,0H8.25V83.5c0,4.56,3.69,8.25,8.25,8.25H100V8.25c-4.56,0-8.25-3.69-8.25-8.25Z"/></g><g id="uuid-fd1592ed-896f-4424-9cf8-e2d27a469fc1"><path d="M91.75,0H8.25V83.5c0,4.56,3.69,8.25,8.25,8.25H100V0h-8.25Z"/></g><g id="uuid-f18d88df-c3c2-49a4-ab06-99456ed3fd7f"><path d="M8.25,0c0,4.56-3.69,8.25-8.25,8.25V91.75H83.5c4.56,0,8.25-3.69,8.25-8.25V0H8.25Z"/></g><g id="uuid-0af3993e-2b97-4c2d-8c26-78aee75cbf7e"><path d="M8.25,0H0V91.75H83.5c4.56,0,8.25-3.69,8.25-8.25V0H8.25Z"/></g><g id="uuid-5bc72138-9ba6-4b90-b736-8eee3786fe61"><path d="M83.5,8.25H16.5c-4.56,0-8.25,3.69-8.25,8.25V100H91.75c0-4.56,3.69-8.25,8.25-8.25V8.25h-16.5Z"/></g><g id="uuid-423cb924-d6a8-4925-872f-973966b3ca6f"><path d="M83.5,8.25H16.5c-4.56,0-8.25,3.69-8.25,8.25V100H100V8.25h-16.5Z"/></g><g id="uuid-501f9802-1fb6-4d6d-8e1e-a63d536ef851"><path d="M83.5,8.25H0V91.75c4.56,0,8.25,3.69,8.25,8.25H91.75V16.5c0-4.56-3.69-8.25-8.25-8.25Z"/></g><g id="uuid-ba59b95c-8887-497a-9d22-1586a21c6133"><path d="M83.5,8.25H0V100H91.75V16.5c0-4.56-3.69-8.25-8.25-8.25Z"/></g><g id="uuid-2033aa46-b257-4ce5-b6ca-ef2496256d2b"><path d="M91.75,0H8.25V100H91.75c0-4.56,3.69-8.25,8.25-8.25V8.25c-4.56,0-8.25-3.69-8.25-8.25Z"/></g><g id="uuid-5d053b5d-acdf-4a72-a2ef-4134895691ea"><path d="M91.75,0H8.25V100H91.75c0-4.56,3.69-8.25,8.25-8.25V0h-8.25Z"/></g><g id="uuid-42919629-0b3b-4dc4-846c-4039759cba1e"><path d="M91.75,0H8.25V100H100V8.25c-4.56,0-8.25-3.69-8.25-8.25Z"/></g><g id="uuid-ddfd14f6-f757-4709-ba07-f7947e345694"><polygon points="91.75 0 73.37 0 8.25 0 8.25 16.5 8.25 50 8.25 83.5 8.25 100 73.37 100 91.75 100 100 100 100 91.75 100 8.25 100 0 91.75 0"/></g><g id="uuid-115d58d7-7dcf-44aa-a9bf-ecc47bbd2ae4"><path d="M91.75,0H8.25c0,4.56-3.69,8.25-8.25,8.25V91.75H100V8.25c-4.56,0-8.25-3.69-8.25-8.25Z"/></g><g id="uuid-aa7c8378-a87b-436c-a304-971c139e714d"><path d="M91.75,0H0V91.75H100V8.25c-4.56,0-8.25-3.69-8.25-8.25Z"/></g><g id="uuid-bd6df13e-d353-411b-95d0-2416f425e42f"><path d="M91.75,0H8.25c0,4.56-3.69,8.25-8.25,8.25V91.75H100V0h-8.25Z"/></g><g id="uuid-787eefb3-ddf0-49d6-8f48-5d683c060d35"><polygon points="91.75 0 8.25 0 0 0 0 8.25 0 12.19 0 91.75 16.5 91.75 50 91.75 83.5 91.75 100 91.75 100 12.19 100 8.25 100 0 91.75 0"/></g><g id="uuid-e78b1f8f-b8bc-468f-bd71-0e88abe63923"><path d="M8.25,0c0,4.56-3.69,8.25-8.25,8.25V91.75c4.56,0,8.25,3.69,8.25,8.25H91.75V0H8.25Z"/></g><g id="uuid-84d5eb3c-5651-4134-9925-2dccf7d41550"><path d="M8.25,0c0,4.56-3.69,8.25-8.25,8.25V100H91.75V0H8.25Z"/></g><g id="uuid-c05172d3-b848-4f54-af3e-76cfe9b5cc8a"><path d="M29.39,0H0V91.75c4.56,0,8.25,3.69,8.25,8.25H91.75V0H29.39Z"/></g><g id="uuid-83dbfb01-5b81-418d-a543-acff49b18ca4"><polygon points="13.07 0 8.25 0 0 0 0 8.25 0 91.75 0 100 8.25 100 13.07 100 91.75 100 91.75 83.5 91.75 50 91.75 16.5 91.75 0 13.07 0"/></g><g id="uuid-f7726c59-0f21-43ff-86cb-8b1ab35d05e0"><path d="M83.5,8.25H0V91.75c4.56,0,8.25,3.69,8.25,8.25H91.75c0-4.56,3.69-8.25,8.25-8.25V8.25h-16.5Z"/></g><g id="uuid-a9b50858-0342-4fa7-9d8b-1db06a14b23c"><path d="M83.5,8.25H0V100H91.75c0-4.56,3.69-8.25,8.25-8.25V8.25h-16.5Z"/></g><g id="uuid-62be8529-9dc9-4639-b06d-6c2a4259226c"><path d="M83.5,8.25H0V91.75c4.56,0,8.25,3.69,8.25,8.25H100V8.25h-16.5Z"/></g><g id="uuid-f18a6a2f-6346-4766-b3cb-4bc2778adfb8"><polygon points="83.5 8.25 50 8.25 16.5 8.25 0 8.25 0 82.41 0 91.75 0 100 8.25 100 91.75 100 100 100 100 91.75 100 82.41 100 8.25 83.5 8.25"/></g><g id="uuid-c5bd59ef-6d53-4f76-a475-7391625df548"><path d="M91.75,0H8.25c0,4.56-3.69,8.25-8.25,8.25V91.75c4.56,0,8.25,3.69,8.25,8.25H91.75c0-4.56,3.69-8.25,8.25-8.25V8.25c-4.56,0-8.25-3.69-8.25-8.25Z"/></g><g id="uuid-56c5754a-a3f3-4929-affd-3c554bef1a96"><path d="M91.75,0H8.25c0,4.56-3.69,8.25-8.25,8.25V91.75c4.56,0,8.25,3.69,8.25,8.25H91.75c0-4.56,3.69-8.25,8.25-8.25V0h-8.25Z"/></g><g id="uuid-84ff8566-89d9-4544-8abc-4221d4b6f96f"><path d="M91.75,0H0V91.75c4.56,0,8.25,3.69,8.25,8.25H91.75c0-4.56,3.69-8.25,8.25-8.25V8.25c-4.56,0-8.25-3.69-8.25-8.25Z"/></g><g id="uuid-0fe06b69-1723-411d-a35d-6118f336d86e"><path d="M91.75,0H8.25c0,4.56-3.69,8.25-8.25,8.25V100H91.75c0-4.56,3.69-8.25,8.25-8.25V8.25c-4.56,0-8.25-3.69-8.25-8.25Z"/></g><g id="uuid-788d213c-b1c8-45a0-81ea-0e4179b56e90"><path d="M91.75,0H8.25c0,4.56-3.69,8.25-8.25,8.25V91.75c4.56,0,8.25,3.69,8.25,8.25H100V8.25c-4.56,0-8.25-3.69-8.25-8.25Z"/></g><g id="uuid-de1ddc39-da20-45ef-81ac-ccd8ffa79b71"><path d="M91.75,0H8.25c0,4.56-3.69,8.25-8.25,8.25V91.75c4.56,0,8.25,3.69,8.25,8.25H100V0h-8.25Z"/></g><g id="uuid-499e9420-bc68-429b-b61b-1117d4ed1cbf"><path d="M91.75,0H0V100H91.75c0-4.56,3.69-8.25,8.25-8.25V8.25c-4.56,0-8.25-3.69-8.25-8.25Z"/></g><g id="uuid-381ae914-457a-4bca-9711-2041aa66caba"><path d="M91.75,0H0V91.75c4.56,0,8.25,3.69,8.25,8.25H91.75c0-4.56,3.69-8.25,8.25-8.25V0h-8.25Z"/></g><g id="uuid-55d41065-cee1-4c1e-9e99-42d7bc339bc0"><path d="M91.75,0H8.25c0,4.56-3.69,8.25-8.25,8.25V100H100V8.25c-4.56,0-8.25-3.69-8.25-8.25Z"/></g><g id="uuid-760dbe81-904b-4223-a7eb-eba6c6c78239"><path d="M91.75,0H8.25c0,4.56-3.69,8.25-8.25,8.25V100H91.75c0-4.56,3.69-8.25,8.25-8.25V0h-8.25Z"/></g><g id="uuid-ddd9e5a0-0867-4c0a-8f10-6aae4576c997"><path d="M91.75,0H0V91.75c4.56,0,8.25,3.69,8.25,8.25H100V8.25c-4.56,0-8.25-3.69-8.25-8.25Z"/></g><g id="uuid-bdbe6112-78d6-49f5-9ddf-94ac68004c12"><path d="M91.75,0H0V100H91.75c0-4.56,3.69-8.25,8.25-8.25V0h-8.25Z"/></g><g id="uuid-7e5ba2ba-9145-4d1b-b350-43631bad668b"><path d="M91.75,0H0V91.75c4.56,0,8.25,3.69,8.25,8.25H100V0h-8.25Z"/></g><g id="uuid-f069537f-f816-4f66-920f-b8f4986bc352"><path d="M91.75,0H8.25c0,4.56-3.69,8.25-8.25,8.25V100H100V0h-8.25Z"/></g><g id="uuid-0f1d82b0-f986-4ebf-9b66-5fadcc5d3c35"><path d="M91.75,0H0V100H100V8.25c-4.56,0-8.25-3.69-8.25-8.25Z"/></g><g id="uuid-825772ad-0456-43fc-96ac-d4bf19bf1dd3"><polygon points="91.75 0 8.25 0 0 0 0 8.25 0 91.75 0 100 8.25 100 91.75 100 100 100 100 91.75 100 8.25 100 0 91.75 0"/></g></svg>